<svg xmlns="http://www.w3.org/2000/svg" viewBox="0 0 1440 320"><path fill="#FA782F" fill-opacity="1" d="M0,160L26.7,160C53.3,160,107,160,160,138.7C213.3,117,267,75,320,74.7C373.3,75,427,117,480,160C533.3,203,587,245,640,245.3C693.3,245,747,203,800,170.7C853.3,139,907,117,960,128C1013.3,139,1067,181,1120,170.7C1173.3,160,1227,96,1280,80C1333.3,64,1387,96,1413,112L1440,128L1440,320L1413.3,320C1386.7,320,1333,320,1280,320C1226.7,320,1173,320,1120,320C1066.7,320,1013,320,960,320C906.7,320,853,320,800,320C746.7,320,693,320,640,320C586.7,320,533,320,480,320C426.7,320,373,320,320,320C266.7,320,213,320,160,320C106.7,320,53,320,27,320L0,320Z"></path></svg>